<svg xmlns="http://www.w3.org/2000/svg" xmlns:xlink="http://www.w3.org/1999/xlink" width="100" zoomAndPan="magnify" viewBox="0 0 75 37.5" height="50" preserveAspectRatio="xMidYMid meet" version="1.0"><defs><clipPath id="08d8ab4694"><path d="M 0.492188 13.410156 L 14.554688 13.410156 L 14.554688 27.472656 L 0.492188 27.472656 Z M 0.492188 13.410156 " clip-rule="nonzero"/></clipPath><clipPath id="53a41dbf97"><path d="M 59.90625 12.511719 L 74.503906 12.511719 L 74.503906 27.3125 L 59.90625 27.3125 Z M 59.90625 12.511719 " clip-rule="nonzero"/></clipPath><clipPath id="ee8376a7a1"><path d="M 31 11.726562 L 42.800781 11.726562 L 42.800781 25.789062 L 31 25.789062 Z M 31 11.726562 " clip-rule="nonzero"/></clipPath></defs><g clip-path="url(#08d8ab4694)"><path fill="#000000" d="M 14.425781 20.441406 C 14.425781 24.25 11.335938 27.339844 7.523438 27.339844 C 3.714844 27.339844 0.625 24.25 0.625 20.441406 C 0.625 16.628906 3.714844 13.539062 7.523438 13.539062 C 11.335938 13.539062 14.425781 16.628906 14.425781 20.441406 Z M 14.425781 20.441406 " fill-opacity="1" fill-rule="nonzero"/><path fill="#ffffff" d="M 7.523438 27.472656 C 6.574219 27.472656 5.65625 27.285156 4.789062 26.917969 C 3.949219 26.566406 3.199219 26.058594 2.554688 25.410156 C 1.90625 24.765625 1.398438 24.015625 1.046875 23.175781 C 0.679688 22.308594 0.492188 21.390625 0.492188 20.441406 C 0.492188 19.492188 0.679688 18.570312 1.046875 17.703125 C 1.398438 16.867188 1.90625 16.113281 2.554688 15.46875 C 3.199219 14.824219 3.949219 14.316406 4.789062 13.960938 C 5.65625 13.59375 6.574219 13.410156 7.523438 13.410156 C 8.472656 13.410156 9.394531 13.59375 10.261719 13.960938 C 11.097656 14.316406 11.851562 14.824219 12.496094 15.46875 C 13.140625 16.113281 13.648438 16.867188 14.003906 17.703125 C 14.371094 18.570312 14.554688 19.492188 14.554688 20.441406 C 14.554688 21.390625 14.371094 22.308594 14.003906 23.175781 C 13.648438 24.015625 13.140625 24.765625 12.496094 25.410156 C 11.851562 26.058594 11.097656 26.566406 10.261719 26.917969 C 9.394531 27.285156 8.472656 27.472656 7.523438 27.472656 Z M 7.523438 13.671875 C 3.792969 13.671875 0.753906 16.707031 0.753906 20.441406 C 0.753906 24.171875 3.792969 27.207031 7.523438 27.207031 C 11.257812 27.207031 14.292969 24.171875 14.292969 20.441406 C 14.292969 16.707031 11.257812 13.671875 7.523438 13.671875 Z M 7.523438 13.671875 " fill-opacity="1" fill-rule="nonzero"/></g><path fill="#000000" d="M 10.863281 20.738281 C 10.863281 22.628906 9.351562 24.160156 7.488281 24.160156 C 5.625 24.160156 4.117188 22.628906 4.117188 20.738281 C 4.117188 18.851562 5.625 17.320312 7.488281 17.320312 C 8.230469 17.320312 8.910156 17.5625 9.46875 17.96875 " fill-opacity="1" fill-rule="nonzero"/><path fill="#ffffff" d="M 7.488281 24.816406 C 6.945312 24.816406 6.417969 24.707031 5.917969 24.492188 C 5.4375 24.289062 5.007812 23.992188 4.636719 23.617188 C 4.269531 23.246094 3.976562 22.808594 3.777344 22.324219 C 3.566406 21.820312 3.460938 21.289062 3.460938 20.738281 C 3.460938 20.191406 3.566406 19.65625 3.777344 19.15625 C 3.976562 18.671875 4.269531 18.234375 4.636719 17.859375 C 5.007812 17.484375 5.4375 17.191406 5.917969 16.984375 C 6.417969 16.773438 6.945312 16.664062 7.488281 16.664062 C 8.347656 16.664062 9.164062 16.933594 9.855469 17.441406 L 9.078125 18.496094 C 8.613281 18.15625 8.066406 17.976562 7.488281 17.976562 C 5.992188 17.976562 4.773438 19.214844 4.773438 20.738281 C 4.773438 22.265625 5.992188 23.503906 7.488281 23.503906 C 8.988281 23.503906 10.207031 22.265625 10.207031 20.738281 L 11.519531 20.738281 C 11.519531 21.289062 11.414062 21.820312 11.203125 22.324219 C 11 22.808594 10.710938 23.246094 10.34375 23.617188 C 9.972656 23.992188 9.542969 24.289062 9.0625 24.492188 C 8.5625 24.707031 8.035156 24.816406 7.488281 24.816406 Z M 7.488281 24.816406 " fill-opacity="1" fill-rule="nonzero"/><path fill="#ffffff" d="M 7.304688 20.054688 L 11.507812 20.054688 L 11.507812 21.367188 L 7.304688 21.367188 Z M 7.304688 20.054688 " fill-opacity="1" fill-rule="nonzero"/><g clip-path="url(#53a41dbf97)"><path fill="#ffffff" d="M 67.308594 12.511719 C 63.230469 12.511719 59.90625 15.835938 59.90625 19.914062 C 59.90625 23.992188 63.230469 27.3125 67.308594 27.3125 C 71.386719 27.3125 74.710938 23.992188 74.710938 19.914062 C 74.710938 15.835938 71.386719 12.511719 67.308594 12.511719 Z M 67.308594 13.992188 C 70.585938 13.992188 73.230469 16.632812 73.230469 19.914062 C 73.230469 22.882812 71.058594 25.324219 68.210938 25.757812 L 68.210938 21.679688 L 69.933594 21.679688 L 70.203125 19.925781 L 68.210938 19.925781 L 68.210938 18.96875 C 68.210938 18.242188 68.445312 17.597656 69.128906 17.597656 L 70.21875 17.597656 L 70.21875 16.070312 C 70.027344 16.042969 69.621094 15.988281 68.855469 15.988281 C 67.25 15.988281 66.3125 16.832031 66.3125 18.761719 L 66.3125 19.925781 L 64.664062 19.925781 L 64.664062 21.679688 L 66.3125 21.679688 L 66.3125 25.746094 C 63.511719 25.273438 61.386719 22.851562 61.386719 19.914062 C 61.386719 16.632812 64.027344 13.992188 67.308594 13.992188 Z M 67.308594 13.992188 " fill-opacity="1" fill-rule="nonzero"/></g><g clip-path="url(#ee8376a7a1)"><path fill="#ffffff" d="M 40.949219 19.175781 C 40.96875 21.300781 42.773438 22.007812 42.792969 22.015625 C 42.777344 22.066406 42.503906 23.023438 41.839844 24.011719 C 41.269531 24.863281 40.675781 25.714844 39.738281 25.734375 C 38.816406 25.75 38.523438 25.175781 37.46875 25.175781 C 36.417969 25.175781 36.089844 25.714844 35.21875 25.75 C 34.316406 25.785156 33.625 24.828125 33.046875 23.976562 C 31.867188 22.234375 30.96875 19.054688 32.179688 16.910156 C 32.78125 15.84375 33.855469 15.167969 35.019531 15.152344 C 35.910156 15.132812 36.746094 15.761719 37.289062 15.761719 C 37.832031 15.761719 38.847656 15.007812 39.917969 15.117188 C 40.367188 15.136719 41.625 15.300781 42.433594 16.507812 C 42.367188 16.550781 40.933594 17.402344 40.949219 19.175781 M 39.21875 13.964844 C 39.699219 13.371094 40.023438 12.546875 39.933594 11.726562 C 39.242188 11.753906 38.40625 12.195312 37.910156 12.789062 C 37.464844 13.3125 37.074219 14.152344 37.179688 14.957031 C 37.953125 15.019531 38.738281 14.558594 39.21875 13.964844 " fill-opacity="1" fill-rule="nonzero"/></g></svg>